<?xml version="1.0" standalone="no"?>
<!DOCTYPE svg PUBLIC "-//W3C//DTD SVG 20010904//EN"
 "http://www.w3.org/TR/2001/REC-SVG-20010904/DTD/svg10.dtd">
<svg version="1.0" xmlns="http://www.w3.org/2000/svg"
 width="310.000000pt" height="310.000000pt" viewBox="0 0 310.000000 310.000000"
 preserveAspectRatio="xMidYMid meet">
<metadata>
Created by potrace 1.14, written by Peter Selinger 2001-2017
</metadata>
<g transform="translate(0.000000,310.000000) scale(0.100000,-0.100000)"
fill="#000000" stroke="none">
<path d="M750 3017 c-25 -12 -48 -26 -51 -30 -3 -5 -8 -8 -10 -7 -12 4 -39
-14 -39 -27 0 -8 -4 -11 -10 -8 -17 10 -11 -11 9 -34 12 -14 22 -18 26 -11 3
6 11 8 16 5 5 -4 9 -1 9 5 0 6 5 8 10 5 6 -3 10 -2 10 2 0 5 16 15 35 22 19 7
35 17 35 23 0 6 3 8 6 5 4 -4 15 3 25 15 21 23 24 32 10 23 -5 -3 -12 4 -16
15 -8 25 -10 25 -65 -3z"/>
<path d="M1385 3020 c-4 -6 -16 -10 -26 -7 -11 3 -19 2 -19 -2 0 -5 -15 -9
-32 -10 -56 -3 -58 -4 -58 -13 0 -5 -4 -7 -9 -3 -5 3 -13 0 -17 -6 -4 -8 -9
-7 -15 2 -6 10 -9 11 -9 2 0 -7 -11 -13 -25 -13 -14 0 -25 -5 -25 -11 0 -5 -4
-8 -8 -5 -5 3 -21 -2 -36 -9 -16 -8 -32 -13 -36 -10 -5 3 -10 0 -12 -5 -2 -6
-10 -12 -19 -13 -9 -2 -28 -11 -42 -20 -15 -10 -27 -14 -27 -10 0 5 -4 4 -8
-2 -13 -18 -53 -36 -64 -29 -7 4 -8 3 -4 -4 4 -7 -2 -16 -16 -22 -34 -15 -62
-33 -71 -48 -5 -7 -12 -10 -18 -7 -5 4 -9 -1 -9 -9 0 -8 -5 -18 -12 -22 -7 -5
-8 -2 -3 7 4 8 -9 -3 -29 -24 -20 -20 -36 -35 -36 -32 0 2 -22 -17 -48 -43
-27 -26 -47 -50 -46 -53 2 -3 -8 -13 -21 -23 -14 -10 -22 -22 -19 -27 3 -5 0
-9 -5 -9 -6 0 -11 -7 -11 -16 0 -10 -5 -14 -16 -10 -8 3 -13 2 -10 -3 3 -5 -1
-14 -9 -21 -7 -6 -11 -19 -8 -27 4 -10 2 -14 -5 -9 -6 3 -13 -3 -17 -14 -4
-11 -11 -18 -16 -15 -5 3 -6 -1 -3 -9 3 -9 2 -16 -4 -16 -8 0 -21 -26 -26 -53
0 -4 -7 -12 -15 -16 -7 -5 -10 -14 -7 -20 4 -6 3 -11 -3 -11 -5 0 -12 -13 -16
-30 -4 -16 -10 -30 -15 -30 -7 0 -25 -67 -22 -82 1 -5 -3 -8 -9 -8 -5 0 -9 -8
-8 -17 1 -10 -3 -31 -10 -46 -6 -16 -9 -33 -5 -38 3 -5 1 -9 -5 -9 -5 0 -8
-11 -6 -25 1 -14 -2 -25 -6 -25 -5 0 -7 -14 -5 -30 2 -17 0 -32 -4 -35 -10 -6
-10 -287 1 -306 6 -12 2 -22 -11 -34 -12 -11 -20 -13 -20 -6 0 9 -5 9 -20 1
-15 -8 -20 -8 -20 1 0 8 -4 8 -15 -1 -8 -7 -15 -8 -15 -3 0 11 -26 10 -52 -2
-10 -4 -15 -11 -12 -16 3 -5 2 -9 -3 -9 -4 0 -8 -97 -8 -215 0 -137 4 -215 10
-215 6 0 6 -3 0 -8 -14 -9 -13 -65 0 -74 7 -5 7 -8 0 -8 -6 0 -10 -72 -10
-195 0 -123 4 -195 10 -195 6 0 6 -3 0 -8 -14 -9 -13 -65 0 -74 7 -5 7 -8 0
-8 -6 0 -10 -72 -10 -195 0 -115 4 -195 9 -195 6 0 1 -6 -9 -14 -11 -8 -26
-11 -35 -7 -19 10 -56 -10 -54 -29 3 -37 5 -41 27 -40 12 1 27 1 32 0 6 -1
641 -2 1412 -3 928 -1 1404 1 1407 8 3 6 5 6 5 0 1 -11 82 -12 99 -1 6 3 13 2
17 -4 9 -15 31 9 33 38 1 14 -1 23 -4 19 -4 -3 -16 0 -27 8 -15 11 -24 12 -34
3 -9 -8 -13 -7 -13 1 0 7 -4 10 -8 7 -5 -3 -9 315 -9 705 0 589 -2 712 -13
719 -8 5 -18 6 -22 4 -4 -3 -8 0 -8 6 0 8 -6 8 -20 0 -15 -8 -20 -8 -20 1 0 9
-3 9 -14 0 -10 -9 -16 -9 -21 -1 -5 8 -11 8 -19 1 -9 -8 -18 -6 -30 8 -10 10
-13 22 -8 25 5 3 9 30 8 61 0 30 1 55 4 55 5 0 4 29 -3 145 -1 22 -6 46 -11
54 -7 11 -6 12 5 6 12 -8 12 -6 0 8 -7 9 -10 17 -7 17 4 0 2 9 -4 20 -8 15 -8
20 2 20 9 0 9 3 -2 10 -8 5 -11 12 -7 16 4 4 2 13 -4 21 -6 7 -8 13 -4 13 4 0
2 7 -5 15 -7 9 -8 15 -2 15 7 0 6 8 -1 24 -7 13 -14 23 -18 21 -3 -2 -5 6 -4
18 2 21 -1 29 -25 77 -5 11 -10 27 -10 35 0 9 -4 14 -9 10 -6 -3 -8 4 -6 15 2
11 0 20 -5 20 -5 0 -12 11 -16 25 -3 13 -12 29 -20 36 -8 6 -11 15 -8 20 3 5
0 9 -5 9 -6 0 -11 7 -11 15 0 8 -5 15 -12 15 -6 0 -9 3 -5 6 3 4 1 12 -6 20
-29 33 -37 44 -37 53 0 6 -8 15 -17 20 -10 6 -15 11 -11 11 4 0 -11 19 -32 42
-22 23 -40 45 -40 49 0 4 -9 11 -21 14 -11 4 -18 9 -15 12 6 6 -44 54 -101 95
-24 17 -43 35 -43 40 0 5 -4 6 -10 3 -5 -3 -10 -1 -10 4 0 6 -6 11 -13 11 -7
0 -23 9 -35 20 -12 11 -23 20 -26 20 -3 0 -28 14 -56 30 -28 17 -57 30 -65 30
-8 0 -15 4 -15 10 0 5 -7 7 -15 4 -8 -4 -15 -1 -15 7 0 7 -3 9 -6 6 -4 -3 -16
0 -26 8 -11 7 -27 11 -34 8 -8 -3 -14 0 -14 6 0 6 -11 11 -24 11 -14 0 -28 5
-32 11 -3 6 -15 9 -25 6 -11 -3 -19 -1 -19 4 0 5 -5 9 -11 9 -5 0 -7 -4 -4
-10 3 -6 -1 -7 -9 -4 -9 3 -16 10 -16 15 0 5 -10 9 -22 8 -26 0 -153 9 -153
12 0 0 -17 2 -37 4 -24 2 -38 -1 -38 -8 0 -9 -2 -9 -8 -1 -9 14 -74 14 -84 -1
-5 -6 -8 -5 -8 3 0 10 -5 10 -22 1 -27 -14 -28 -14 -38 1 -6 9 -9 9 -15 0z"/>
<path d="M501 2852 c-6 -9 -11 -14 -11 -10 0 4 -9 0 -19 -9 -11 -9 -18 -20
-15 -25 3 -4 0 -8 -6 -8 -6 0 -24 -13 -40 -30 -16 -16 -34 -30 -39 -30 -6 0
-7 -7 -4 -17 4 -11 3 -14 -5 -9 -7 4 -12 4 -12 -1 0 -4 -14 -24 -30 -43 -16
-19 -30 -38 -30 -42 0 -4 -11 -19 -25 -34 -14 -15 -23 -29 -21 -32 5 -4 -2
-14 -31 -46 -7 -8 -9 -16 -6 -20 4 -3 2 -6 -3 -6 -5 0 -9 -12 -8 -27 0 -20 6
-27 22 -28 27 -2 65 22 57 36 -4 5 0 15 7 23 20 20 41 53 39 60 0 3 7 14 17
24 9 11 33 39 52 63 19 24 53 62 75 84 22 22 39 44 37 48 -1 5 1 6 5 4 5 -3
17 1 28 9 10 8 15 14 11 14 -4 0 0 7 9 16 12 12 13 19 5 24 -6 4 -10 11 -8 15
7 17 -41 14 -51 -3z"/>
</g>
</svg>
